<svg id="Calque_1" data-name="Calque 1" xmlns="http://www.w3.org/2000/svg" viewBox="0 0 220 50"><defs><style>.cls-1{fill:#808081;}.cls-2{fill:none;}</style></defs><title>ogslPlan de travail 1</title><path class="cls-1" d="M101.71,21.33l7.93,3.59a.83.83,0,0,0,.72,0l7.93-3.59a.77.77,0,0,0,0-1.37l-7.93-3.59a.83.83,0,0,0-.72,0L101.71,20A.77.77,0,0,0,101.71,21.33Zm16.58,3-2-.9-5.5,2.5a2,2,0,0,1-1.62,0l-5.5-2.5-2,.9a.76.76,0,0,0,0,1.36l7.93,3.59a.83.83,0,0,0,.72,0l7.93-3.59a.76.76,0,0,0,0-1.36Zm0,4.35-2-.89-5.51,2.49a1.91,1.91,0,0,1-1.62,0l-5.51-2.49-2,.89a.76.76,0,0,0,0,1.36l7.93,3.59a.83.83,0,0,0,.72,0L118.29,30A.76.76,0,0,0,118.29,28.68Z"/><rect class="cls-2" width="220" height="50"/></svg>