<?xml version="1.0" encoding="UTF-8" standalone="no"?>
<!DOCTYPE svg PUBLIC "-//W3C//DTD SVG 1.1//EN"
 "http://www.w3.org/Graphics/SVG/1.1/DTD/svg11.dtd">
<!-- Generated by graphviz version 2.40.1 (20161225.0304)
 -->
<!-- Title: dependencies Pages: 1 -->
<svg width="812pt" height="211pt"
 viewBox="0.00 0.00 812.00 211.00" xmlns="http://www.w3.org/2000/svg" xmlns:xlink="http://www.w3.org/1999/xlink">
<g id="graph0" class="graph" transform="scale(1 1) rotate(0) translate(4 207)">
<title>dependencies</title>
<polygon fill="#ffffff" stroke="transparent" points="-4,4 -4,-207 808,-207 808,4 -4,4"/>
<text text-anchor="start" x="381.0091" y="-42.4" font-family="sans-serif" font-weight="bold" font-size="14.00" fill="#000000">Legend</text>
<polygon fill="#ffffb3" stroke="transparent" points="168,-10 168,-30 188,-30 188,-10 168,-10"/>
<text text-anchor="start" x="191.629" y="-15.4" font-family="sans-serif" font-size="14.00" fill="#000000"> &#160;Declarations</text>
<polygon fill="#8dd3c7" stroke="transparent" points="281,-10 281,-30 301,-30 301,-10 281,-10"/>
<text text-anchor="start" x="304.7251" y="-15.4" font-family="sans-serif" font-size="14.00" fill="#000000"> &#160;Module</text>
<polygon fill="#80b1d3" stroke="transparent" points="367,-10 367,-30 387,-30 387,-10 367,-10"/>
<text text-anchor="start" x="390.7812" y="-15.4" font-family="sans-serif" font-size="14.00" fill="#000000"> &#160;Bootstrap</text>
<polygon fill="#fdb462" stroke="transparent" points="464,-10 464,-30 484,-30 484,-10 464,-10"/>
<text text-anchor="start" x="487.6732" y="-15.4" font-family="sans-serif" font-size="14.00" fill="#000000"> &#160;Providers</text>
<polygon fill="#fb8072" stroke="transparent" points="560,-10 560,-30 580,-30 580,-10 560,-10"/>
<text text-anchor="start" x="583.7258" y="-15.4" font-family="sans-serif" font-size="14.00" fill="#000000"> &#160;Exports</text>
<g id="clust1" class="cluster">
<title>cluster_MapModule</title>
<polygon fill="none" stroke="#000000" stroke-dasharray="1,5" points="8,-70 8,-195 796,-195 796,-70 8,-70"/>
</g>
<g id="clust2" class="cluster">
<title>cluster_MapModule_declarations</title>
<polygon fill="none" stroke="#000000" points="138,-78 138,-130 788,-130 788,-78 138,-78"/>
</g>
<g id="clust7" class="cluster">
<title>cluster_MapModule_imports</title>
<polygon fill="none" stroke="#000000" points="16,-78 16,-130 130,-130 130,-78 16,-78"/>
</g>
<!-- LayerComponent -->
<g id="node1" class="node">
<title>LayerComponent</title>
<polygon fill="#ffffb3" stroke="#000000" points="779.9748,-122 666.0252,-122 666.0252,-86 779.9748,-86 779.9748,-122"/>
<text text-anchor="middle" x="723" y="-99.8" font-family="Times,serif" font-size="14.00" fill="#000000">LayerComponent</text>
</g>
<!-- MapModule -->
<g id="node5" class="node">
<title>MapModule</title>
<polygon fill="#8dd3c7" stroke="#000000" points="405.7093,-187 402.7093,-191 381.7093,-191 378.7093,-187 320.2907,-187 320.2907,-151 405.7093,-151 405.7093,-187"/>
<text text-anchor="middle" x="363" y="-164.8" font-family="Times,serif" font-size="14.00" fill="#000000">MapModule</text>
</g>
<!-- LayerComponent&#45;&gt;MapModule -->
<g id="edge1" class="edge">
<title>LayerComponent&#45;&gt;MapModule</title>
<path fill="none" stroke="#000000" d="M723,-122.2843C723,-143.3211 723,-175 723,-175 723,-175 415.7104,-175 415.7104,-175"/>
<polygon fill="#000000" stroke="#000000" points="415.7105,-171.5001 405.7104,-175 415.7104,-178.5001 415.7105,-171.5001"/>
</g>
<!-- LayerConfigurationComponent -->
<g id="node2" class="node">
<title>LayerConfigurationComponent</title>
<polygon fill="#ffffb3" stroke="#000000" points="648.0196,-122 455.9804,-122 455.9804,-86 648.0196,-86 648.0196,-122"/>
<text text-anchor="middle" x="552" y="-99.8" font-family="Times,serif" font-size="14.00" fill="#000000">LayerConfigurationComponent</text>
</g>
<!-- LayerConfigurationComponent&#45;&gt;MapModule -->
<g id="edge2" class="edge">
<title>LayerConfigurationComponent&#45;&gt;MapModule</title>
<path fill="none" stroke="#000000" d="M552,-122.0225C552,-139.3734 552,-163 552,-163 552,-163 415.887,-163 415.887,-163"/>
<polygon fill="#000000" stroke="#000000" points="415.8871,-159.5001 405.887,-163 415.887,-166.5001 415.8871,-159.5001"/>
</g>
<!-- LayerPickerComponent -->
<g id="node3" class="node">
<title>LayerPickerComponent</title>
<polygon fill="#ffffb3" stroke="#000000" points="437.738,-122 288.262,-122 288.262,-86 437.738,-86 437.738,-122"/>
<text text-anchor="middle" x="363" y="-99.8" font-family="Times,serif" font-size="14.00" fill="#000000">LayerPickerComponent</text>
</g>
<!-- LayerPickerComponent&#45;&gt;MapModule -->
<g id="edge3" class="edge">
<title>LayerPickerComponent&#45;&gt;MapModule</title>
<path fill="none" stroke="#000000" d="M363,-122.1061C363,-122.1061 363,-140.991 363,-140.991"/>
<polygon fill="#000000" stroke="#000000" points="359.5001,-140.9909 363,-150.991 366.5001,-140.991 359.5001,-140.9909"/>
</g>
<!-- SidebarComponent -->
<g id="node4" class="node">
<title>SidebarComponent</title>
<polygon fill="#ffffb3" stroke="#000000" points="270.0954,-122 145.9046,-122 145.9046,-86 270.0954,-86 270.0954,-122"/>
<text text-anchor="middle" x="208" y="-99.8" font-family="Times,serif" font-size="14.00" fill="#000000">SidebarComponent</text>
</g>
<!-- SidebarComponent&#45;&gt;MapModule -->
<g id="edge4" class="edge">
<title>SidebarComponent&#45;&gt;MapModule</title>
<path fill="none" stroke="#000000" d="M208,-122.0225C208,-139.3734 208,-163 208,-163 208,-163 310.2353,-163 310.2353,-163"/>
<polygon fill="#000000" stroke="#000000" points="310.2353,-166.5001 320.2353,-163 310.2352,-159.5001 310.2353,-166.5001"/>
</g>
<!-- SharedModule -->
<g id="node6" class="node">
<title>SharedModule</title>
<polygon fill="#8dd3c7" stroke="#000000" points="122.4231,-122 119.4231,-126 98.4231,-126 95.4231,-122 23.5769,-122 23.5769,-86 122.4231,-86 122.4231,-122"/>
<text text-anchor="middle" x="73" y="-99.8" font-family="Times,serif" font-size="14.00" fill="#000000">SharedModule</text>
</g>
<!-- SharedModule&#45;&gt;MapModule -->
<g id="edge5" class="edge">
<title>SharedModule&#45;&gt;MapModule</title>
<path fill="none" stroke="#000000" d="M73,-122.2843C73,-143.3211 73,-175 73,-175 73,-175 310.2095,-175 310.2095,-175"/>
<polygon fill="#000000" stroke="#000000" points="310.2095,-178.5001 320.2095,-175 310.2095,-171.5001 310.2095,-178.5001"/>
</g>
</g>
</svg>
