<?xml version="1.0" encoding="UTF-8" standalone="no"?>
<!DOCTYPE svg PUBLIC "-//W3C//DTD SVG 1.1//EN"
 "http://www.w3.org/Graphics/SVG/1.1/DTD/svg11.dtd">
<!-- Generated by graphviz version 2.40.1 (20161225.0304)
 -->
<!-- Title: dependencies Pages: 1 -->
<svg width="1175pt" height="352pt"
 viewBox="0.00 0.00 1175.00 352.00" xmlns="http://www.w3.org/2000/svg" xmlns:xlink="http://www.w3.org/1999/xlink">
<g id="graph0" class="graph" transform="scale(1 1) rotate(0) translate(4 348)">
<title>dependencies</title>
<polygon fill="#ffffff" stroke="transparent" points="-4,4 -4,-348 1171,-348 1171,4 -4,4"/>
<text text-anchor="start" x="562.5091" y="-42.4" font-family="sans-serif" font-weight="bold" font-size="14.00" fill="#000000">Legend</text>
<polygon fill="#ffffb3" stroke="transparent" points="349.5,-10 349.5,-30 369.5,-30 369.5,-10 349.5,-10"/>
<text text-anchor="start" x="373.129" y="-15.4" font-family="sans-serif" font-size="14.00" fill="#000000"> &#160;Declarations</text>
<polygon fill="#8dd3c7" stroke="transparent" points="462.5,-10 462.5,-30 482.5,-30 482.5,-10 462.5,-10"/>
<text text-anchor="start" x="486.2251" y="-15.4" font-family="sans-serif" font-size="14.00" fill="#000000"> &#160;Module</text>
<polygon fill="#80b1d3" stroke="transparent" points="548.5,-10 548.5,-30 568.5,-30 568.5,-10 548.5,-10"/>
<text text-anchor="start" x="572.2812" y="-15.4" font-family="sans-serif" font-size="14.00" fill="#000000"> &#160;Bootstrap</text>
<polygon fill="#fdb462" stroke="transparent" points="645.5,-10 645.5,-30 665.5,-30 665.5,-10 645.5,-10"/>
<text text-anchor="start" x="669.1732" y="-15.4" font-family="sans-serif" font-size="14.00" fill="#000000"> &#160;Providers</text>
<polygon fill="#fb8072" stroke="transparent" points="741.5,-10 741.5,-30 761.5,-30 761.5,-10 741.5,-10"/>
<text text-anchor="start" x="765.2258" y="-15.4" font-family="sans-serif" font-size="14.00" fill="#000000"> &#160;Exports</text>
<g id="clust1" class="cluster">
<title>cluster_AppModule</title>
<polygon fill="none" stroke="#000000" stroke-dasharray="1,5" points="8,-70 8,-336 485,-336 485,-70 8,-70"/>
</g>
<g id="clust3" class="cluster">
<title>cluster_AppModule_imports</title>
<polygon fill="none" stroke="#000000" points="216,-78 216,-198 477,-198 477,-78 216,-78"/>
</g>
<g id="clust5" class="cluster">
<title>cluster_AppModule_bootstrap</title>
<polygon fill="none" stroke="#000000" points="198,-276 198,-328 322,-328 322,-276 198,-276"/>
</g>
<g id="clust6" class="cluster">
<title>cluster_AppModule_providers</title>
<polygon fill="none" stroke="#000000" points="16,-146 16,-198 208,-198 208,-146 16,-146"/>
</g>
<g id="clust19" class="cluster">
<title>cluster_MapModule</title>
<polygon fill="none" stroke="#000000" stroke-dasharray="1,5" points="493,-70 493,-138 1159,-138 1159,-70 493,-70"/>
</g>
<g id="clust20" class="cluster">
<title>cluster_MapModule_declarations</title>
<polygon fill="none" stroke="#000000" points="501,-78 501,-130 1151,-130 1151,-78 501,-78"/>
</g>
<!-- AppRoutingModule -->
<g id="node1" class="node">
<title>AppRoutingModule</title>
<polygon fill="#8dd3c7" stroke="#000000" points="352.2744,-122 349.2744,-126 328.2744,-126 325.2744,-122 223.7256,-122 223.7256,-86 352.2744,-86 352.2744,-122"/>
<text text-anchor="middle" x="288" y="-99.8" font-family="Times,serif" font-size="14.00" fill="#000000">AppRoutingModule</text>
</g>
<!-- CoreModule -->
<g id="node2" class="node">
<title>CoreModule</title>
<polygon fill="#8dd3c7" stroke="#000000" points="365.2619,-190 362.2619,-194 341.2619,-194 338.2619,-190 278.7381,-190 278.7381,-154 365.2619,-154 365.2619,-190"/>
<text text-anchor="middle" x="322" y="-167.8" font-family="Times,serif" font-size="14.00" fill="#000000">CoreModule</text>
</g>
<!-- AppRoutingModule&#45;&gt;CoreModule -->
<g id="edge7" class="edge">
<title>AppRoutingModule&#45;&gt;CoreModule</title>
<path fill="none" stroke="#000000" d="M315.5032,-122.2228C315.5032,-122.2228 315.5032,-143.7269 315.5032,-143.7269"/>
<polygon fill="#000000" stroke="#000000" points="312.0032,-143.7269 315.5032,-153.7269 319.0032,-143.727 312.0032,-143.7269"/>
</g>
<!-- AppModule -->
<g id="node5" class="node">
<title>AppModule</title>
<polygon fill="#8dd3c7" stroke="#000000" points="301.6571,-255 298.6571,-259 277.6571,-259 274.6571,-255 218.3429,-255 218.3429,-219 301.6571,-219 301.6571,-255"/>
<text text-anchor="middle" x="260" y="-232.8" font-family="Times,serif" font-size="14.00" fill="#000000">AppModule</text>
</g>
<!-- AppRoutingModule&#45;&gt;AppModule -->
<g id="edge1" class="edge">
<title>AppRoutingModule&#45;&gt;AppModule</title>
<path fill="none" stroke="#000000" d="M260.2838,-122.2142C260.2838,-122.2142 260.2838,-208.579 260.2838,-208.579"/>
<polygon fill="#000000" stroke="#000000" points="256.7839,-208.5789 260.2838,-218.579 263.7839,-208.579 256.7839,-208.5789"/>
</g>
<!-- CoreModule&#45;&gt;AppModule -->
<g id="edge2" class="edge">
<title>CoreModule&#45;&gt;AppModule</title>
<path fill="none" stroke="#000000" d="M290.2237,-190.1061C290.2237,-190.1061 290.2237,-208.991 290.2237,-208.991"/>
<polygon fill="#000000" stroke="#000000" points="286.7238,-208.9909 290.2237,-218.991 293.7238,-208.991 286.7238,-208.9909"/>
</g>
<!-- MapModule -->
<g id="node3" class="node">
<title>MapModule</title>
<polygon fill="#8dd3c7" stroke="#000000" points="468.7093,-190 465.7093,-194 444.7093,-194 441.7093,-190 383.2907,-190 383.2907,-154 468.7093,-154 468.7093,-190"/>
<text text-anchor="middle" x="426" y="-167.8" font-family="Times,serif" font-size="14.00" fill="#000000">MapModule</text>
</g>
<!-- MapModule&#45;&gt;AppModule -->
<g id="edge3" class="edge">
<title>MapModule&#45;&gt;AppModule</title>
<path fill="none" stroke="#000000" d="M426,-190.2843C426,-211.3211 426,-243 426,-243 426,-243 311.8888,-243 311.8888,-243"/>
<polygon fill="#000000" stroke="#000000" points="311.8888,-239.5001 301.8888,-243 311.8888,-246.5001 311.8888,-239.5001"/>
</g>
<!-- SharedModule -->
<g id="node4" class="node">
<title>SharedModule</title>
<polygon fill="#8dd3c7" stroke="#000000" points="469.4231,-122 466.4231,-126 445.4231,-126 442.4231,-122 370.5769,-122 370.5769,-86 469.4231,-86 469.4231,-122"/>
<text text-anchor="middle" x="420" y="-99.8" font-family="Times,serif" font-size="14.00" fill="#000000">SharedModule</text>
</g>
<!-- SharedModule&#45;&gt;CoreModule -->
<g id="edge8" class="edge">
<title>SharedModule&#45;&gt;CoreModule</title>
<path fill="none" stroke="#000000" d="M374.9911,-122.2228C374.9911,-142.3652 374.9911,-172 374.9911,-172 374.9911,-172 374.0192,-172 374.0192,-172"/>
<polygon fill="#000000" stroke="#000000" points="375.2718,-168.5001 365.2717,-172 375.2717,-175.5001 375.2718,-168.5001"/>
</g>
<!-- SharedModule&#45;&gt;MapModule -->
<g id="edge13" class="edge">
<title>SharedModule&#45;&gt;MapModule</title>
<path fill="none" stroke="#000000" d="M426,-122.2228C426,-122.2228 426,-143.7269 426,-143.7269"/>
<polygon fill="#000000" stroke="#000000" points="422.5001,-143.7269 426,-153.7269 429.5001,-143.727 422.5001,-143.7269"/>
</g>
<!-- SharedModule&#45;&gt;AppModule -->
<g id="edge4" class="edge">
<title>SharedModule&#45;&gt;AppModule</title>
<path fill="none" stroke="#000000" d="M379.1933,-122.196C379.1933,-157.3126 379.1933,-231 379.1933,-231 379.1933,-231 311.688,-231 311.688,-231"/>
<polygon fill="#000000" stroke="#000000" points="311.6881,-227.5001 301.688,-231 311.688,-234.5001 311.6881,-227.5001"/>
</g>
<!-- AppComponent  -->
<g id="node6" class="node">
<title>AppComponent </title>
<polygon fill="#80b1d3" stroke="#000000" points="314.439,-320 205.561,-320 205.561,-284 314.439,-284 314.439,-320"/>
<text text-anchor="middle" x="260" y="-297.8" font-family="Times,serif" font-size="14.00" fill="#000000">AppComponent </text>
</g>
<!-- AppModule&#45;&gt;AppComponent  -->
<g id="edge5" class="edge">
<title>AppModule&#45;&gt;AppComponent </title>
<path fill="none" stroke="#000000" stroke-dasharray="1,5" d="M260,-255.1061C260,-255.1061 260,-273.991 260,-273.991"/>
<polygon fill="#000000" stroke="#000000" points="256.5001,-273.9909 260,-283.991 263.5001,-273.991 256.5001,-273.9909"/>
</g>
<!-- UrlBehaviorService -->
<g id="node7" class="node">
<title>UrlBehaviorService</title>
<ellipse fill="#fdb462" stroke="#000000" cx="112" cy="-172" rx="88.0191" ry="18"/>
<text text-anchor="middle" x="112" y="-167.8" font-family="Times,serif" font-size="14.00" fill="#000000">UrlBehaviorService</text>
</g>
<!-- UrlBehaviorService&#45;&gt;AppModule -->
<g id="edge6" class="edge">
<title>UrlBehaviorService&#45;&gt;AppModule</title>
<path fill="none" stroke="#000000" d="M200.4746,-172C223.4835,-172 241.9483,-172 241.9483,-172 241.9483,-172 241.9483,-208.8939 241.9483,-208.8939"/>
<polygon fill="#000000" stroke="#000000" points="238.4484,-208.8938 241.9483,-218.8939 245.4484,-208.8939 238.4484,-208.8938"/>
</g>
<!-- LayerComponent -->
<g id="node8" class="node">
<title>LayerComponent</title>
<polygon fill="#ffffb3" stroke="#000000" points="1142.9748,-122 1029.0252,-122 1029.0252,-86 1142.9748,-86 1142.9748,-122"/>
<text text-anchor="middle" x="1086" y="-99.8" font-family="Times,serif" font-size="14.00" fill="#000000">LayerComponent</text>
</g>
<!-- LayerComponent&#45;&gt;MapModule -->
<g id="edge9" class="edge">
<title>LayerComponent&#45;&gt;MapModule</title>
<path fill="none" stroke="#000000" d="M1086,-122.3228C1086,-145.6602 1086,-183 1086,-183 1086,-183 478.7959,-183 478.7959,-183"/>
<polygon fill="#000000" stroke="#000000" points="478.7959,-179.5001 468.7959,-183 478.7959,-186.5001 478.7959,-179.5001"/>
</g>
<!-- LayerConfigurationComponent -->
<g id="node9" class="node">
<title>LayerConfigurationComponent</title>
<polygon fill="#ffffb3" stroke="#000000" points="1011.0196,-122 818.9804,-122 818.9804,-86 1011.0196,-86 1011.0196,-122"/>
<text text-anchor="middle" x="915" y="-99.8" font-family="Times,serif" font-size="14.00" fill="#000000">LayerConfigurationComponent</text>
</g>
<!-- LayerConfigurationComponent&#45;&gt;MapModule -->
<g id="edge10" class="edge">
<title>LayerConfigurationComponent&#45;&gt;MapModule</title>
<path fill="none" stroke="#000000" d="M915,-122.1686C915,-143.498 915,-176 915,-176 915,-176 478.9669,-176 478.9669,-176"/>
<polygon fill="#000000" stroke="#000000" points="478.9669,-172.5001 468.9669,-176 478.9669,-179.5001 478.9669,-172.5001"/>
</g>
<!-- LayerPickerComponent -->
<g id="node10" class="node">
<title>LayerPickerComponent</title>
<polygon fill="#ffffb3" stroke="#000000" points="800.738,-122 651.262,-122 651.262,-86 800.738,-86 800.738,-122"/>
<text text-anchor="middle" x="726" y="-99.8" font-family="Times,serif" font-size="14.00" fill="#000000">LayerPickerComponent</text>
</g>
<!-- LayerPickerComponent&#45;&gt;MapModule -->
<g id="edge11" class="edge">
<title>LayerPickerComponent&#45;&gt;MapModule</title>
<path fill="none" stroke="#000000" d="M726,-122.1061C726,-141.3391 726,-169 726,-169 726,-169 478.6641,-169 478.6641,-169"/>
<polygon fill="#000000" stroke="#000000" points="478.6641,-165.5001 468.6641,-169 478.6641,-172.5001 478.6641,-165.5001"/>
</g>
<!-- SidebarComponent -->
<g id="node11" class="node">
<title>SidebarComponent</title>
<polygon fill="#ffffb3" stroke="#000000" points="633.0954,-122 508.9046,-122 508.9046,-86 633.0954,-86 633.0954,-122"/>
<text text-anchor="middle" x="571" y="-99.8" font-family="Times,serif" font-size="14.00" fill="#000000">SidebarComponent</text>
</g>
<!-- SidebarComponent&#45;&gt;MapModule -->
<g id="edge12" class="edge">
<title>SidebarComponent&#45;&gt;MapModule</title>
<path fill="none" stroke="#000000" d="M571,-122.0336C571,-139.0597 571,-162 571,-162 571,-162 478.7205,-162 478.7205,-162"/>
<polygon fill="#000000" stroke="#000000" points="478.7206,-158.5001 468.7205,-162 478.7205,-165.5001 478.7206,-158.5001"/>
</g>
</g>
</svg>
